# xmcd
#
# Track frame offsets:
#	150
#	18384
#	33961
#	47664
#
# Disc length: 834 seconds
#
# Revision: 0
# Processed by: cddbd v1.5.2PL0 Copyright (c) Steve Scherf et al.
# Submitted via: audiograbber 1.83.01
#
DISCID=26034004
DTITLE=Deadspawn - Slaughter Cattle
DYEAR=2003
DGENRE=Death
TTITLE0=The Aim of Mankind 
TTITLE1=Reign of Weakness 
TTITLE2=Welcome Total Death 
TTITLE3=Dreadful Masquerade 
EXTD=
EXTT0=
EXTT1=
EXTT2=
EXTT3=
PLAYORDER=
